<svg xmlns="http://www.w3.org/2000/svg" xmlns:xlink="http://www.w3.org/1999/xlink" version="1.1" x="0px" y="0px" viewBox="0 0 100 125" style="enable-background:new 0 0 100 100;" xml:space="preserve"><path d="M79.566,53.639c-3.498,0-6.346,2.846-6.346,6.346s2.848,6.349,6.346,6.349c3.502,0,6.35-2.849,6.35-6.349  S83.068,53.639,79.566,53.639z"/><path d="M21.143,53.639c-3.5,0-6.349,2.846-6.349,6.346s2.849,6.349,6.349,6.349s6.348-2.849,6.348-6.349  S24.643,53.639,21.143,53.639z"/><path d="M96.896,53.639c-0.332-1.107-1.035-2.592-2.479-3.524c-6.642-3.771-15.396-4.745-16.492-4.845  c-1.099-0.102-2.858-0.347-2.858-0.347s-9.191-7.132-17.909-9.825c-8.717-2.694-26.662-0.779-28.209-0.634  c-3.666,0.326-13.638,7.71-13.638,7.71S4.428,44.142,3.59,44.887c-0.836,0.744-1.116,4.382-1.088,7.765  c0.028,3.384,0.631,8.029,0.631,8.029c1.418,0.086,9.051,0.543,9.051,0.543c-0.056-0.406-0.095-0.817-0.095-1.238  c0-5,4.053-9.055,9.054-9.055s9.054,4.188,9.054,9.187c0,0.937-0.141,1.817-0.405,2.817h41.13c-0.265-1-0.406-1.883-0.406-2.817  c0-4.999,4.053-9.12,9.055-9.12c5,0,9.054,4.021,9.054,9.021c0,0.791-0.11,1.535-0.302,2.267c1.805,0.077,8.421,0.321,8.932-0.027  C97.846,61.855,97.229,54.747,96.896,53.639z M28.73,44.408c0,0-0.104-5.518,1.383-6.879c1.489-1.36,11.172-1.011,11.638-1.046  c0.467-0.034,0.905,0.478,0.941,0.963c0.035,0.486,0.543,7.795,0.543,7.795L28.73,44.408z M63.829,45.913l-16.88-0.42  c0,0-1.623-8.117-1.691-8.445c-0.068-0.329,0.236-0.563,0.752-0.564c0.516-0.001,7.4,0.622,10.926,1.881  c4.797,1.712,8.991,4.903,8.991,4.903L63.829,45.913z"/><text x="0" y="115" fill="#000000" font-size="5px" font-weight="bold" font-family="'Helvetica Neue', Helvetica, Arial-Unicode, Arial, Sans-serif">Created by Stock Image Folio</text><text x="0" y="120" fill="#000000" font-size="5px" font-weight="bold" font-family="'Helvetica Neue', Helvetica, Arial-Unicode, Arial, Sans-serif">from the Noun Project</text></svg>