<svg xmlns="http://www.w3.org/2000/svg" xmlns:xlink="http://www.w3.org/1999/xlink" version="1.1" x="0px" y="0px" viewBox="0 0 64 40" enable-background="new 0 0 64 64" xml:space="preserve"><g><path fill="#000000" d="M9.101,33.096c-2.632-1.331-5.177-2.614-7.715-3.913c-0.17-0.087-0.398-0.319-0.379-0.453   c0.025-0.181,0.231-0.4,0.414-0.488c1.382-0.661,2.884-0.984,4.362-0.698c3.038,0.586,6.042,1.351,9.06,2.045   c0.028,0.006,0.05,0.042,0.137,0.121C12.62,30.202,10.41,30.893,9.101,33.096z"/><path fill="#000000" d="M44.869,21.9c0.217,0.091,0.189,0.406-0.039,0.461c-2.981,0.719-3.459,0.881-6.099,1.479   c-0.542,0.123-1.585-1.022-1.933-1.325c-0.656-0.572-1.296-1.165-1.892-1.8c-0.39-0.415-0.86-0.751-0.251-1.135   c0.566-0.357,1.865-0.713,2.532-0.507C39.326,19.737,43.32,21.253,44.869,21.9z"/><path fill="#000000" d="M62.994,35.573c-0.834,0.552-1.678,0.472-2.471,0.301c-2.853-0.613-5.696-1.256-8.528-1.959   c-0.311-0.08-0.613-0.121-0.904-0.131c-2.873,1.336-8.548,3.938-11.05,4.862c-1.467,0.542-2.943,1.065-4.42,1.577   c5.816,3.586,11.723,6.921,17.529,10.407v0.201c-1.015,0.1-3.516,0.904-4.36,0.763c-1.326-0.221-10.748-3.094-13.541-3.847   c-0.261-0.07-0.573-0.07-0.844-0.01c-1.848,0.442-3.687,0.934-5.535,1.366c-1.808,0.422-3.395-0.733-3.285-2.431   c0.03-0.442,0.332-0.894,0.583-1.286c0.251-0.382,0.291-0.593-0.211-0.753c-0.603-0.211-1.215-0.432-1.828-0.653   c-1.698,0.512-3.395,0.984-5.123,1.416C16.656,45.98,4.06,49.727,5.154,44.322c0.362-1.788,1.446-3.305,2.431-4.802   c1.075-1.647,2.11-3.325,3.295-4.892c0.653-0.854,1.457-1.627,2.521-1.899c0.512-0.131,33.119-8.85,33.39-8.669   c0.121-0.171,0.231-0.301,0.321-0.442c1.667-2.692,3.325-5.384,4.982-8.076c0.01-0.02,0.02-0.04,0.03-0.05   c1.708-2.783,3.365-3.516,6.61-2.903c1.075,0.191,1.326,0.593,0.944,1.617c-1.065,2.863-3.285,8.91-4.259,11.662l-1.436,3.938   c0.08,0.09,0.191,0.171,0.332,0.261c2.582,1.587,5.163,3.214,7.735,4.832C62.341,35.081,62.622,35.302,62.994,35.573z"/></g></svg>
