<svg xmlns="http://www.w3.org/2000/svg" xmlns:xlink="http://www.w3.org/1999/xlink" version="1.1" x="0px" y="0px" viewBox="0 18 100 65" style="enable-background:new 0 0 100 100;" xml:space="preserve"><path d="M80.3,43.9L73,29.4c-1.2-3-4.2-4.9-7.4-4.9H60l-0.9-3.2c-0.5-1.7-2-2.9-3.8-2.9H44.8c-1.8,0-3.4,1.2-3.8,2.9L40,24.6H33  c-3.2,0-6.1,1.9-7.4,4.9l-7.4,14.7c-3.5,0.9-6,4-6,7.7l0.7,19.8c0.2,2,1.7,3.5,3.7,3.6v4.1c0,1.2,1.4,2.2,3.2,2.2h8.4  c1.7,0,3.2-1,3.2-2.2v-4h37.3v4c0,1.2,1.4,2.2,3.2,2.2h8.4c1.7,0,3.2-1,3.2-2.2v-4.1c1.9-0.2,3.5-1.7,3.7-3.6l0.7-19.8  C87.8,47.7,84.5,44.2,80.3,43.9z M43.8,22.1c0.1-0.4,0.5-0.7,0.9-0.7h10.5c0.4,0,0.8,0.3,0.9,0.7l0.7,2.4H43.2L43.8,22.1z   M33.9,60.1H23c-3.4,0-6.7-2.8-7.3-6.3c-0.5-3.3,1.7-6,5-6.1c2,0,3.9,0.8,5.3,2.2c1.2,1.2,2.7,2,4.2,2.5l3.2,1  c0.7,0.2,1.3,0.9,1.5,1.6l0.6,3.2C35.5,59.3,34.8,60.1,33.9,60.1z M22.5,42.6L28.3,31l0-0.1c0.8-1.9,2.6-3.1,4.6-3.1h1.8h28.4h2.5  c2,0,3.8,1.2,4.6,3.1l0.1,0.2l5.8,11.5c0,1.2-12,2.2-26.8,2.2S22.5,43.8,22.5,42.6z M84.3,53.8c-0.6,3.5-3.8,6.3-7.3,6.3H66.1  c-1,0-1.6-0.8-1.4-1.7l0.6-3.2c0.1-0.7,0.7-1.4,1.5-1.6l3.2-1c1.5-0.5,3-1.4,4.2-2.5c1.4-1.4,3.3-2.3,5.3-2.2  C82.6,47.8,84.9,50.5,84.3,53.8z"/></svg>
