<svg xmlns="http://www.w3.org/2000/svg" xmlns:xlink="http://www.w3.org/1999/xlink" version="1.1" x="0px" y="0px" viewBox="0 100 392.848 410" enable-background="new 0 0 392.848 507.348" xml:space="preserve"><g><rect x="53.133" y="274.43" fill="none" width="64.398" height="75.677"/><path d="M168.692,126.152c6.887-0.723,14.685-3.065,23.376-7.058c1.446,2.169,3.441,4.716,5.991,7.61   c2.528,2.892,5.704,5.156,9.512,6.791c3.804,1.633,8.424,2.262,13.864,1.902c5.438-0.363,11.79-2.531,19.035-6.524   c1.808-1.085,4.165-2.452,7.073-4.089c2.893-1.617,5.708-2.073,8.428-1.35c2.718,0.723,5.171,3.457,7.341,8.157   c2.183,4.716,3.442,13.064,3.804,25.012h24.476c0-6.885-0.549-16.034-1.637-27.447c-1.083-11.43-3.895-23.124-8.424-35.087   c-4.545-11.962-11.508-23.296-20.938-33.986c-9.432-10.689-22.293-18.771-38.607-24.209c-0.726-3.254-2.908-7.058-6.524-11.413   c-3.632-4.338-8.428-7.97-14.415-10.878c-5.974-2.892-13.239-4.526-21.759-4.889c-8.519-0.361-18.031,1.808-28.546,6.523   c-5.441-5.438-11.412-9.337-17.936-11.696C126.281,1.163,119.928,0,113.767,0c-6.178,0-12.057,1.163-17.669,3.521   C90.47,5.879,85.487,9.245,81.133,13.582c-4.337,4.355-7.97,10.344-10.877,17.951c-2.892,7.61-4.624,15.863-5.158,24.745   c-0.55,8.882,0.534,18.045,3.254,27.463c2.721,9.432,7.89,18.125,15.502,26.111c2.183,2.169,4.903,4.055,8.157,5.689   c3.27,1.635,6.978,2.736,11.145,3.27c4.166,0.534,8.444,0.472,12.781-0.267c4.354-0.723,8.707-2.531,13.064-5.438   c1.808,2.168,4.524,4.542,8.141,7.058c3.632,2.547,8.066,4.369,13.332,5.438C155.723,126.704,161.793,126.891,168.692,126.152z"/><rect x="153.489" y="282.499" width="157.245" height="108.402"/><rect x="253.303" y="203.593" width="57.431" height="69.76"/><rect x="319.86" y="301.793" width="27.362" height="79.429"/><polygon points="235.061,161.195 253.303,194.998 310.734,194.998 328.98,161.195  "/><polygon points="392.848,498.226 322.729,399.742 369.929,506.822 386.412,506.822  "/><polygon points="340.376,506.822 367.734,506.822 322.272,403.683  "/><polygon points="319.86,506.822 338.342,506.822 319.86,401.522  "/><path d="M121.02,420.673c-4.485-4.464-9.85-8.049-16.103-10.718c-6.266-2.7-12.797-4.035-19.593-4.035   c-7.154,0-13.777,1.335-19.859,4.035c-6.078,2.669-11.447,6.254-16.087,10.718c-4.656,4.485-8.328,9.851-10.997,16.104   c-2.684,6.27-4.031,12.802-4.031,19.593c0,7.17,1.347,13.777,4.031,19.863c2.669,6.074,6.341,11.447,10.997,16.1   c4.641,4.651,10.009,8.312,16.087,10.984c6.083,2.701,12.706,4.031,19.859,4.031c6.795,0,13.327-1.33,19.593-4.031   c6.253-2.673,11.618-6.333,16.103-10.984c4.469-4.652,8.053-10.025,10.738-16.1c2.68-6.086,4.015-12.693,4.015-19.863   c0-6.791-1.335-13.323-4.015-19.593C129.073,430.523,125.488,425.158,121.02,420.673z"/><path d="M174.416,459.038c-6.437,0-11.989,2.345-16.625,6.981c-4.661,4.652-6.987,10.396-6.987,17.191   c0,6.42,2.326,11.973,6.987,16.633c4.636,4.648,10.188,6.979,16.625,6.979c6.795,0,12.522-2.33,17.175-6.979   c4.636-4.66,6.982-10.213,6.982-16.633c0-6.796-2.346-12.539-6.982-17.191C186.938,461.383,181.21,459.038,174.416,459.038z"/><path d="M25.77,280.336v168.525c1.781-15.032,8.313-27.459,19.573-37.309c11.28-9.838,24.607-14.758,39.981-14.758   c7.52,0,14.673,1.338,21.468,4.022c6.795,2.685,12.802,6.357,17.979,10.998c5.186,4.652,9.479,10.116,12.881,16.382   c3.394,6.27,5.644,13.14,6.715,20.664V242.78H0L25.77,280.336z M53.133,274.43h64.398v75.677H53.133V274.43z"/><path d="M287.123,459.038c-6.811,0-12.534,2.345-17.171,6.981c-4.659,4.652-6.986,10.396-6.986,17.191   c0,6.42,2.327,11.973,6.986,16.633c4.637,4.648,10.36,6.979,17.171,6.979c6.44,0,11.978-2.33,16.634-6.979   c4.651-4.66,6.978-10.213,6.978-16.633c0-6.796-2.326-12.539-6.978-17.191C299.1,461.383,293.563,459.038,287.123,459.038z"/><rect x="153.489" y="399.479" width="157.245" height="48.84"/><path d="M230.759,459.038c-6.791,0-12.515,2.345-17.166,6.981c-4.661,4.652-6.971,10.396-6.971,17.191   c0,6.42,2.31,11.973,6.971,16.633c4.651,4.648,10.375,6.979,17.166,6.979c6.799,0,12.522-2.33,17.175-6.979   c4.66-4.66,6.982-10.213,6.982-16.633c0-6.796-2.322-12.539-6.982-17.191C243.282,461.383,237.558,459.038,230.759,459.038z"/></g></svg>
